<?xml version="1.0"?><svg width="640" height="480" xmlns="http://www.w3.org/2000/svg">
 <title>Simple orange House</title>
 <metadata id="metadata7">image/svg+xml</metadata>
 <g>
  <title>Layer 1</title>
  <g id="layer1">
   <path d="m394.805786,223.09549l0,0zm0,0l-162.8125,-144.1875l-162.906242,144.25l0,206.125c0,5.323364 4.301613,9.59375 9.624992,9.59375l101.812515,0l0,-90.375c0,-5.323425 4.27037,-9.625 9.59375,-9.625l83.656235,0c5.323364,0 9.59375,4.301636 9.59375,9.625l0,90.375l101.84375,0c5.323364,0 9.593781,-4.270325 9.59375,-9.59375l0,-206.1875zm-325.718742,0.0625l0,0z" id="rect2391" stroke-miterlimit="4" stroke-width="0.4" fill="#ff7f00"/>
   <path d="m231.048492,-0.00031l-231.048492,204.583562l24.33831,27.457397l207.655373,-183.88419l207.608124,183.88419l24.291046,-27.457397l-231.001236,-204.583562l-0.897934,1.03971l-0.94519,-1.03971z" id="path2399" stroke-miterlimit="4" stroke-width="0.4" fill="#ff7f00"/>
   <path d="m69.087044,29.44873l58.571434,0l-0.510376,34.691101l-58.061058,52.451752l0,-87.142853z" id="rect2404" stroke-miterlimit="4" stroke-width="0.4" fill="#ff7f00"/>
  </g>
 </g>
</svg>